<svg xmlns="http://www.w3.org/2000/svg" width="1280" height="400" viewBox="0 0 1280 400" role="img" aria-label="Selected Work banner">
  <defs>
    <linearGradient id="bg" x1="0" y1="0" x2="1" y2="0">
      <stop offset="0%" stop-color="#06101f"/>
      <stop offset="55%" stop-color="#08152a"/>
      <stop offset="100%" stop-color="#091733"/>
    </linearGradient>
    <radialGradient id="glow1" cx="70%" cy="22%" r="42%">
      <stop offset="0%" stop-color="#67d5ea" stop-opacity="0.24"/>
      <stop offset="100%" stop-color="#67d5ea" stop-opacity="0"/>
    </radialGradient>
    <radialGradient id="glow2" cx="84%" cy="10%" r="34%">
      <stop offset="0%" stop-color="#7b61ff" stop-opacity="0.18"/>
      <stop offset="100%" stop-color="#7b61ff" stop-opacity="0"/>
    </radialGradient>
    <linearGradient id="barA" x1="0" y1="0" x2="0" y2="1">
      <stop offset="0%" stop-color="#8ce7f2" stop-opacity="0.84"/>
      <stop offset="100%" stop-color="#67d5ea" stop-opacity="0.22"/>
    </linearGradient>
    <linearGradient id="barB" x1="0" y1="0" x2="0" y2="1">
      <stop offset="0%" stop-color="#9bb5ff" stop-opacity="0.64"/>
      <stop offset="100%" stop-color="#7b61ff" stop-opacity="0.22"/>
    </linearGradient>
    <filter id="barBlur" x="-20%" y="-20%" width="140%" height="140%">
      <feGaussianBlur stdDeviation="2"/>
    </filter>
  </defs>

  <rect width="1280" height="400" fill="url(#bg)"/>
  <rect width="1280" height="400" fill="url(#glow1)"/>
  <rect width="1280" height="400" fill="url(#glow2)"/>

  <g stroke="#b9d1ee" stroke-opacity="0.10">
    <line x1="0" y1="0" x2="0" y2="400" stroke-opacity="0.14"/>
    <line x1="32" y1="0" x2="32" y2="400" stroke-opacity="0.08"/>
    <line x1="64" y1="0" x2="64" y2="400" stroke-opacity="0.14"/>
    <line x1="96" y1="0" x2="96" y2="400" stroke-opacity="0.08"/>
    <line x1="128" y1="0" x2="128" y2="400" stroke-opacity="0.14"/>
    <line x1="160" y1="0" x2="160" y2="400" stroke-opacity="0.08"/>
    <line x1="192" y1="0" x2="192" y2="400" stroke-opacity="0.14"/>
    <line x1="224" y1="0" x2="224" y2="400" stroke-opacity="0.08"/>
    <line x1="256" y1="0" x2="256" y2="400" stroke-opacity="0.14"/>
    <line x1="288" y1="0" x2="288" y2="400" stroke-opacity="0.08"/>
    <line x1="320" y1="0" x2="320" y2="400" stroke-opacity="0.14"/>
    <line x1="352" y1="0" x2="352" y2="400" stroke-opacity="0.08"/>
    <line x1="384" y1="0" x2="384" y2="400" stroke-opacity="0.14"/>
    <line x1="416" y1="0" x2="416" y2="400" stroke-opacity="0.08"/>
    <line x1="448" y1="0" x2="448" y2="400" stroke-opacity="0.14"/>
    <line x1="480" y1="0" x2="480" y2="400" stroke-opacity="0.08"/>
    <line x1="512" y1="0" x2="512" y2="400" stroke-opacity="0.14"/>
    <line x1="544" y1="0" x2="544" y2="400" stroke-opacity="0.08"/>
    <line x1="576" y1="0" x2="576" y2="400" stroke-opacity="0.14"/>
    <line x1="608" y1="0" x2="608" y2="400" stroke-opacity="0.08"/>
    <line x1="640" y1="0" x2="640" y2="400" stroke-opacity="0.14"/>
    <line x1="672" y1="0" x2="672" y2="400" stroke-opacity="0.08"/>
    <line x1="704" y1="0" x2="704" y2="400" stroke-opacity="0.14"/>
    <line x1="736" y1="0" x2="736" y2="400" stroke-opacity="0.08"/>
    <line x1="768" y1="0" x2="768" y2="400" stroke-opacity="0.14"/>
    <line x1="800" y1="0" x2="800" y2="400" stroke-opacity="0.08"/>
    <line x1="832" y1="0" x2="832" y2="400" stroke-opacity="0.14"/>
    <line x1="864" y1="0" x2="864" y2="400" stroke-opacity="0.08"/>
    <line x1="896" y1="0" x2="896" y2="400" stroke-opacity="0.14"/>
    <line x1="928" y1="0" x2="928" y2="400" stroke-opacity="0.08"/>
    <line x1="960" y1="0" x2="960" y2="400" stroke-opacity="0.14"/>
    <line x1="992" y1="0" x2="992" y2="400" stroke-opacity="0.08"/>
    <line x1="1024" y1="0" x2="1024" y2="400" stroke-opacity="0.14"/>
    <line x1="1056" y1="0" x2="1056" y2="400" stroke-opacity="0.08"/>
    <line x1="1088" y1="0" x2="1088" y2="400" stroke-opacity="0.14"/>
    <line x1="1120" y1="0" x2="1120" y2="400" stroke-opacity="0.08"/>
    <line x1="1152" y1="0" x2="1152" y2="400" stroke-opacity="0.14"/>
    <line x1="1184" y1="0" x2="1184" y2="400" stroke-opacity="0.08"/>
    <line x1="1216" y1="0" x2="1216" y2="400" stroke-opacity="0.14"/>
    <line x1="1248" y1="0" x2="1248" y2="400" stroke-opacity="0.08"/>
    <line x1="1280" y1="0" x2="1280" y2="400" stroke-opacity="0.14"/>
    <line x1="0" y1="0" x2="1280" y2="0" stroke-opacity="0.12"/>
    <line x1="0" y1="32" x2="1280" y2="32" stroke-opacity="0.07"/>
    <line x1="0" y1="64" x2="1280" y2="64" stroke-opacity="0.12"/>
    <line x1="0" y1="96" x2="1280" y2="96" stroke-opacity="0.07"/>
    <line x1="0" y1="128" x2="1280" y2="128" stroke-opacity="0.12"/>
    <line x1="0" y1="160" x2="1280" y2="160" stroke-opacity="0.07"/>
    <line x1="0" y1="192" x2="1280" y2="192" stroke-opacity="0.12"/>
    <line x1="0" y1="224" x2="1280" y2="224" stroke-opacity="0.07"/>
    <line x1="0" y1="256" x2="1280" y2="256" stroke-opacity="0.12"/>
    <line x1="0" y1="288" x2="1280" y2="288" stroke-opacity="0.07"/>
    <line x1="0" y1="320" x2="1280" y2="320" stroke-opacity="0.12"/>
    <line x1="0" y1="352" x2="1280" y2="352" stroke-opacity="0.07"/>
    <line x1="0" y1="384" x2="1280" y2="384" stroke-opacity="0.12"/>
  </g>
  <g filter="url(#barBlur)">
    <rect x="2" y="289" width="8" height="45" rx="2" fill="url(#barA)" opacity="0.160"/>
    <rect x="2" y="280" width="8" height="54" rx="2" fill="#d6e2ff" opacity="0.019"/>
    <rect x="18" y="287" width="8" height="47" rx="2" fill="url(#barA)" opacity="0.163"/>
    <rect x="34" y="287" width="8" height="47" rx="2" fill="url(#barA)" opacity="0.167"/>
    <rect x="34" y="270" width="8" height="64" rx="2" fill="#d6e2ff" opacity="0.020"/>
    <rect x="50" y="290" width="8" height="44" rx="2" fill="url(#barA)" opacity="0.170"/>
    <rect x="66" y="294" width="8" height="40" rx="2" fill="url(#barA)" opacity="0.174"/>
    <rect x="66" y="292" width="8" height="42" rx="2" fill="#d6e2ff" opacity="0.021"/>
    <rect x="82" y="297" width="8" height="37" rx="2" fill="url(#barA)" opacity="0.178"/>
    <rect x="98" y="301" width="8" height="33" rx="2" fill="url(#barA)" opacity="0.183"/>
    <rect x="98" y="297" width="8" height="37" rx="2" fill="#d6e2ff" opacity="0.022"/>
    <rect x="114" y="303" width="8" height="31" rx="2" fill="url(#barA)" opacity="0.188"/>
    <rect x="130" y="304" width="8" height="30" rx="2" fill="url(#barA)" opacity="0.194"/>
    <rect x="130" y="293" width="8" height="41" rx="2" fill="#d6e2ff" opacity="0.023"/>
    <rect x="146" y="306" width="8" height="28" rx="2" fill="url(#barA)" opacity="0.201"/>
    <rect x="162" y="308" width="8" height="26" rx="2" fill="url(#barA)" opacity="0.207"/>
    <rect x="162" y="306" width="8" height="28" rx="2" fill="#d6e2ff" opacity="0.025"/>
    <rect x="178" y="310" width="8" height="24" rx="2" fill="url(#barA)" opacity="0.215"/>
    <rect x="194" y="314" width="8" height="20" rx="2" fill="url(#barA)" opacity="0.223"/>
    <rect x="194" y="312" width="8" height="22" rx="2" fill="#d6e2ff" opacity="0.027"/>
    <rect x="210" y="318" width="8" height="16" rx="2" fill="url(#barA)" opacity="0.232"/>
    <rect x="226" y="321" width="8" height="13" rx="2" fill="url(#barA)" opacity="0.241"/>
    <rect x="226" y="317" width="8" height="17" rx="2" fill="#d6e2ff" opacity="0.029"/>
    <rect x="242" y="323" width="8" height="11" rx="2" fill="url(#barA)" opacity="0.251"/>
    <rect x="258" y="323" width="8" height="11" rx="2" fill="url(#barA)" opacity="0.262"/>
    <rect x="258" y="322" width="8" height="12" rx="2" fill="#d6e2ff" opacity="0.031"/>
    <rect x="274" y="319" width="8" height="15" rx="2" fill="url(#barA)" opacity="0.273"/>
    <rect x="290" y="313" width="8" height="21" rx="2" fill="url(#barA)" opacity="0.285"/>
    <rect x="290" y="312" width="8" height="22" rx="2" fill="#d6e2ff" opacity="0.034"/>
    <rect x="306" y="306" width="8" height="28" rx="2" fill="url(#barA)" opacity="0.298"/>
    <rect x="322" y="298" width="8" height="36" rx="2" fill="url(#barA)" opacity="0.311"/>
    <rect x="322" y="285" width="8" height="49" rx="2" fill="#d6e2ff" opacity="0.037"/>
    <rect x="338" y="292" width="8" height="42" rx="2" fill="url(#barA)" opacity="0.325"/>
    <rect x="354" y="289" width="8" height="45" rx="2" fill="url(#barA)" opacity="0.340"/>
    <rect x="354" y="281" width="8" height="53" rx="2" fill="#d6e2ff" opacity="0.041"/>
    <rect x="370" y="288" width="8" height="46" rx="2" fill="url(#barA)" opacity="0.355"/>
    <rect x="386" y="291" width="8" height="43" rx="2" fill="url(#barA)" opacity="0.371"/>
    <rect x="386" y="290" width="8" height="44" rx="2" fill="#d6e2ff" opacity="0.044"/>
    <rect x="402" y="296" width="8" height="38" rx="2" fill="url(#barA)" opacity="0.387"/>
    <rect x="418" y="301" width="8" height="33" rx="2" fill="url(#barA)" opacity="0.403"/>
    <rect x="418" y="290" width="8" height="44" rx="2" fill="#d6e2ff" opacity="0.048"/>
    <rect x="434" y="307" width="8" height="27" rx="2" fill="url(#barA)" opacity="0.421"/>
    <rect x="450" y="311" width="8" height="23" rx="2" fill="url(#barA)" opacity="0.438"/>
    <rect x="450" y="306" width="8" height="28" rx="2" fill="#d6e2ff" opacity="0.053"/>
    <rect x="466" y="314" width="8" height="20" rx="2" fill="url(#barA)" opacity="0.456"/>
    <rect x="482" y="315" width="8" height="19" rx="2" fill="url(#barA)" opacity="0.474"/>
    <rect x="482" y="315" width="8" height="19" rx="2" fill="#d6e2ff" opacity="0.057"/>
    <rect x="498" y="315" width="8" height="19" rx="2" fill="url(#barA)" opacity="0.492"/>
    <rect x="514" y="315" width="8" height="19" rx="2" fill="url(#barA)" opacity="0.510"/>
    <rect x="514" y="310" width="8" height="24" rx="2" fill="#d6e2ff" opacity="0.061"/>
    <rect x="530" y="315" width="8" height="19" rx="2" fill="url(#barA)" opacity="0.527"/>
    <rect x="546" y="316" width="8" height="18" rx="2" fill="url(#barA)" opacity="0.545"/>
    <rect x="546" y="311" width="8" height="23" rx="2" fill="#d6e2ff" opacity="0.065"/>
    <rect x="562" y="317" width="8" height="17" rx="2" fill="url(#barA)" opacity="0.563"/>
    <rect x="578" y="317" width="8" height="17" rx="2" fill="url(#barA)" opacity="0.580"/>
    <rect x="578" y="317" width="8" height="17" rx="2" fill="#d6e2ff" opacity="0.070"/>
    <rect x="594" y="316" width="8" height="18" rx="2" fill="url(#barA)" opacity="0.596"/>
    <rect x="610" y="312" width="8" height="22" rx="2" fill="url(#barA)" opacity="0.612"/>
    <rect x="610" y="307" width="8" height="27" rx="2" fill="#d6e2ff" opacity="0.073"/>
    <rect x="626" y="307" width="8" height="27" rx="2" fill="url(#barA)" opacity="0.627"/>
    <rect x="642" y="300" width="8" height="34" rx="2" fill="url(#barA)" opacity="0.641"/>
    <rect x="642" y="289" width="8" height="45" rx="2" fill="#d6e2ff" opacity="0.077"/>
    <rect x="658" y="291" width="8" height="43" rx="2" fill="url(#barA)" opacity="0.655"/>
    <rect x="674" y="283" width="8" height="51" rx="2" fill="url(#barA)" opacity="0.667"/>
    <rect x="674" y="282" width="8" height="52" rx="2" fill="#d6e2ff" opacity="0.080"/>
    <rect x="690" y="277" width="8" height="57" rx="2" fill="url(#barA)" opacity="0.678"/>
    <rect x="706" y="274" width="8" height="60" rx="2" fill="url(#barA)" opacity="0.688"/>
    <rect x="706" y="262" width="8" height="72" rx="2" fill="#d6e2ff" opacity="0.083"/>
    <rect x="722" y="274" width="8" height="60" rx="2" fill="url(#barA)" opacity="0.697"/>
    <rect x="738" y="277" width="8" height="57" rx="2" fill="url(#barA)" opacity="0.700"/>
    <rect x="738" y="257" width="8" height="77" rx="2" fill="#d6e2ff" opacity="0.084"/>
    <rect x="754" y="282" width="8" height="52" rx="2" fill="url(#barA)" opacity="0.700"/>
    <rect x="770" y="287" width="8" height="47" rx="2" fill="url(#barA)" opacity="0.700"/>
    <rect x="770" y="285" width="8" height="49" rx="2" fill="#d6e2ff" opacity="0.084"/>
    <rect x="786" y="293" width="8" height="41" rx="2" fill="url(#barA)" opacity="0.700"/>
    <rect x="802" y="296" width="8" height="38" rx="2" fill="url(#barA)" opacity="0.700"/>
    <rect x="802" y="291" width="8" height="43" rx="2" fill="#d6e2ff" opacity="0.084"/>
    <rect x="818" y="298" width="8" height="36" rx="2" fill="url(#barA)" opacity="0.700"/>
    <rect x="834" y="298" width="8" height="36" rx="2" fill="url(#barA)" opacity="0.700"/>
    <rect x="834" y="285" width="8" height="49" rx="2" fill="#d6e2ff" opacity="0.084"/>
    <rect x="850" y="298" width="8" height="36" rx="2" fill="url(#barA)" opacity="0.700"/>
    <rect x="866" y="296" width="8" height="38" rx="2" fill="url(#barA)" opacity="0.700"/>
    <rect x="866" y="293" width="8" height="41" rx="2" fill="#d6e2ff" opacity="0.084"/>
    <rect x="882" y="296" width="8" height="38" rx="2" fill="url(#barA)" opacity="0.700"/>
    <rect x="898" y="296" width="8" height="38" rx="2" fill="url(#barA)" opacity="0.698"/>
    <rect x="898" y="292" width="8" height="42" rx="2" fill="#d6e2ff" opacity="0.084"/>
    <rect x="914" y="297" width="8" height="37" rx="2" fill="url(#barB)" opacity="0.689"/>
    <rect x="930" y="298" width="8" height="36" rx="2" fill="url(#barB)" opacity="0.679"/>
    <rect x="930" y="285" width="8" height="49" rx="2" fill="#d6e2ff" opacity="0.082"/>
    <rect x="946" y="299" width="8" height="35" rx="2" fill="url(#barB)" opacity="0.668"/>
    <rect x="962" y="298" width="8" height="36" rx="2" fill="url(#barB)" opacity="0.656"/>
    <rect x="962" y="293" width="8" height="41" rx="2" fill="#d6e2ff" opacity="0.079"/>
    <rect x="978" y="296" width="8" height="38" rx="2" fill="url(#barB)" opacity="0.643"/>
    <rect x="994" y="293" width="8" height="41" rx="2" fill="url(#barB)" opacity="0.629"/>
    <rect x="994" y="291" width="8" height="43" rx="2" fill="#d6e2ff" opacity="0.075"/>
    <rect x="1010" y="289" width="8" height="45" rx="2" fill="url(#barB)" opacity="0.614"/>
    <rect x="1026" y="285" width="8" height="49" rx="2" fill="url(#barB)" opacity="0.598"/>
    <rect x="1026" y="268" width="8" height="66" rx="2" fill="#d6e2ff" opacity="0.072"/>
    <rect x="1042" y="283" width="8" height="51" rx="2" fill="url(#barB)" opacity="0.582"/>
    <rect x="1058" y="285" width="8" height="49" rx="2" fill="url(#barB)" opacity="0.565"/>
    <rect x="1058" y="276" width="8" height="58" rx="2" fill="#d6e2ff" opacity="0.068"/>
    <rect x="1074" y="289" width="8" height="45" rx="2" fill="url(#barB)" opacity="0.547"/>
    <rect x="1090" y="296" width="8" height="38" rx="2" fill="url(#barB)" opacity="0.530"/>
    <rect x="1090" y="295" width="8" height="39" rx="2" fill="#d6e2ff" opacity="0.064"/>
    <rect x="1106" y="305" width="8" height="29" rx="2" fill="url(#barB)" opacity="0.512"/>
    <rect x="1122" y="314" width="8" height="20" rx="2" fill="url(#barB)" opacity="0.494"/>
    <rect x="1122" y="308" width="8" height="26" rx="2" fill="#d6e2ff" opacity="0.059"/>
    <rect x="1138" y="322" width="8" height="12" rx="2" fill="url(#barB)" opacity="0.476"/>
    <rect x="1154" y="327" width="8" height="7" rx="2" fill="url(#barB)" opacity="0.458"/>
    <rect x="1154" y="326" width="8" height="8" rx="2" fill="#d6e2ff" opacity="0.055"/>
    <rect x="1170" y="329" width="8" height="5" rx="2" fill="url(#barB)" opacity="0.440"/>
    <rect x="1186" y="329" width="8" height="5" rx="2" fill="url(#barB)" opacity="0.423"/>
    <rect x="1186" y="329" width="8" height="5" rx="2" fill="#d6e2ff" opacity="0.051"/>
    <rect x="1202" y="327" width="8" height="7" rx="2" fill="url(#barB)" opacity="0.406"/>
    <rect x="1218" y="324" width="8" height="10" rx="2" fill="url(#barB)" opacity="0.389"/>
    <rect x="1218" y="321" width="8" height="13" rx="2" fill="#d6e2ff" opacity="0.047"/>
    <rect x="1234" y="321" width="8" height="13" rx="2" fill="url(#barB)" opacity="0.372"/>
    <rect x="1250" y="318" width="8" height="16" rx="2" fill="url(#barB)" opacity="0.357"/>
    <rect x="1250" y="314" width="8" height="20" rx="2" fill="#d6e2ff" opacity="0.043"/>
    <rect x="1266" y="316" width="8" height="18" rx="2" fill="url(#barB)" opacity="0.341"/>
  </g>

  <rect x="0" y="264" width="1280" height="136" fill="#06101f" opacity="0.18"/>

  <text x="68" y="158" fill="#f3f7fb" font-family="Inter, Segoe UI, Arial, sans-serif" font-size="62" font-weight="800">Selected Work</text>
  <text x="68" y="226" fill="#eef4fb" fill-opacity="0.95" font-family="Inter, Segoe UI, Arial, sans-serif" font-size="28" font-weight="700">Public-safe case studies and engineering highlights</text>
  <text x="68" y="280" fill="#c8d3e5" fill-opacity="0.92" font-family="Inter, Segoe UI, Arial, sans-serif" font-size="24" font-weight="500">Biography-Ai • ODFillin • systems design • product execution</text>
</svg>